<svg xmlns="http://www.w3.org/2000/svg" viewBox="0 0 128 128" role="img" aria-label="苏晚星">
  <defs>
    <linearGradient id="night" x1="0" y1="0" x2="1" y2="1">
      <stop offset="0" stop-color="#1b1a4b"/>
      <stop offset="1" stop-color="#3b2f7a"/>
    </linearGradient>
  </defs>
  <rect width="128" height="128" fill="url(#night)"/>
  <g fill="#ffffff">
    <circle cx="26" cy="30" r="1.6"/><circle cx="48" cy="18" r="1.1"/><circle cx="74" cy="26" r="1.4"/>
    <circle cx="104" cy="22" r="1"/><circle cx="90" cy="48" r="1.7"/><circle cx="36" cy="60" r="1.2"/>
    <circle cx="112" cy="70" r="1.3"/><circle cx="20" cy="92" r="1"/><circle cx="60" cy="104" r="1.5"/>
    <circle cx="100" cy="102" r="1.1"/><circle cx="82" cy="80" r="1"/>
  </g>
  <path d="M30 40 L62 64" stroke="#fbe7a1" stroke-width="2" stroke-linecap="round" opacity="0.9"/>
  <circle cx="63" cy="65" r="3" fill="#fff4c2"/>
  <g fill="none" stroke="#f8fafc" stroke-width="3.5" stroke-linecap="round">
    <path d="M32 46 V32 H46"/><path d="M82 32 H96 V46"/>
    <path d="M32 82 V96 H46"/><path d="M96 82 V96 H82"/>
  </g>
</svg>
